<?xml version="1.0" encoding="utf-8"?>
<!-- Generator: Adobe Illustrator 23.0.1, SVG Export Plug-In . SVG Version: 6.00 Build 0)  -->
<svg version="1.1" id="Calque_1" xmlns="http://www.w3.org/2000/svg" xmlns:xlink="http://www.w3.org/1999/xlink" x="0px" y="0px"
	 viewBox="0 0 500 200" style="enable-background:new 0 0 500 200;" xml:space="preserve">
<style type="text/css">
	.st0{fill:none;stroke:#000000;stroke-width:2;stroke-miterlimit:10;}
	.st1{fill:none;}
	.st2{fill:#FFBD4A;stroke:#000000;stroke-miterlimit:10;}
	.st3{fill:#FFBD4A;}
	.st4{fill:none;stroke:#000000;stroke-miterlimit:10;}
	.st5{fill:#FF5757;}
	.st6{fill:#FFFFFF;}
	.st7{fill:#FFFFFF;stroke:#FFFFFF;stroke-miterlimit:10;}
	.st8{fill:#0072FF;}
</style>
<path class="st0" d="M41.68,139.14l29.56-73.26c1.41-3.5,6.35-3.55,7.84-0.09l31.38,73.12"/>
<line class="st0" x1="51.3" y1="115.05" x2="100.21" y2="115.03"/>
<path class="st0" d="M112.52,83.32l22.36,51.2c0.96,2.21,4.09,2.22,5.07,0.02l22.92-51.37"/>
<line class="st0" x1="183.7" y1="83.17" x2="183.85" y2="140.41"/>
<circle class="st0" cx="183.1" cy="72.61" r="5.24"/>
<path class="st0" d="M200.3,124.69"/>
<path class="st0" d="M203.87,114.82"/>
<path class="st0" d="M232.27,94.69c-1.57-4.29-4.85-7.94-9.39-9.86c-8.68-3.67-18.7,0.4-22.36,9.08
	c-3.28,7.77-0.37,16.61,6.51,21.01"/>
<path class="st0" d="M200.56,138.2"/>
<path class="st0" d="M222.35,107.84c4.29,1.57,7.94,4.85,9.86,9.39c3.67,8.68-0.4,18.7-9.08,22.36c-7.77,3.28-16.61,0.37-21.01-6.51
	"/>
<path class="st1" d="M354.85,119.82"/>
<path class="st2" d="M379.75,120.37"/>
<path class="st3" d="M354.85,119.82c-8.85-4.67-14.87-13.96-14.87-24.66c0-15.4,12.48-27.88,27.88-27.88
	c15.4,0,27.88,12.48,27.88,27.88c0,11.14-6.53,20.75-15.98,25.22"/>
<path class="st1" d="M351.41,117.4"/>
<path class="st2" d="M384.65,117.4"/>
<path class="st3" d="M354.85,119.82c2.91,2.17,6.92,5.76,9.88,10.84c1.71,2.93,5.94,2.74,7.43-0.31c1.73-3.56,4.21-7.29,7.7-10.05"
	/>
<path class="st1" d="M354.85,119.82"/>
<line class="st1" x1="351.41" y1="117.4" x2="351.05" y2="117.33"/>
<circle class="st3" cx="368.63" cy="137.83" r="3.24"/>
<path class="st4" d="M411.58,117.47"/>
<line class="st4" x1="411.58" y1="117.47" x2="411.22" y2="117.4"/>
<path class="st5" d="M439.37,120.27"/>
<path class="st5" d="M414.47,119.72c-8.85-4.67-14.87-13.96-14.87-24.66c0-15.4,12.48-27.88,27.88-27.88s27.88,12.48,27.88,27.88
	c0,11.14-6.53,20.75-15.98,25.22"/>
<path class="st5" d="M444.28,117.3"/>
<path class="st5" d="M414.47,119.72c2.91,2.17,6.92,5.76,9.88,10.84c1.71,2.93,5.94,2.74,7.43-0.31c1.73-3.56,4.21-7.29,7.7-10.05"
	/>
<circle class="st5" cx="428.25" cy="137.73" r="3.24"/>
<circle class="st6" cx="368.34" cy="94.73" r="12.72"/>
<circle class="st7" cx="427.97" cy="94.63" r="12.72"/>
<path class="st8" d="M318.92,112.12c-3.19,7.99-11.22,13.61-20.45,13.13c-10.57-0.55-19.2-9.22-19.69-19.79
	c-0.56-11.95,8.97-21.81,20.79-21.81c3.62,0,7.02,0.92,9.99,2.55c1.61,0.88,3.6,0.64,4.89-0.66l7.35-7.38
	c1.25-1.26,1.04-3.33-0.41-4.35c-6.56-4.57-14.68-7.06-23.4-6.52c-18.29,1.13-33.17,15.88-34.44,34.16
	c-1.5,21.56,15.54,39.52,36.79,39.52c17.63,0,32.36-12.32,36-28.86"/>
<path class="st4" d="M336.45,108.9"/>
<path class="st8" d="M319.41,112.11h-14.32c-2.12,0-3.83-1.65-3.83-3.68v-8.29c0-1.87,1.58-3.38,3.52-3.38h26.9
	c2.56,0,4.64,1.99,4.64,4.45v10.89"/>
</svg>
